# This file uses centimeters as units for non-parametric coordinates.

mtllib mirror.mtl
g default
v 2.592514 4.282107 0.705696
v 2.161288 4.642177 0.410652
v 1.503431 4.928889 0.188542
v 0.683366 5.114177 0.061107
v -0.218642 5.179906 0.040817
v -1.114295 5.119637 0.129668
v -1.915923 4.939273 0.318954
v -2.545059 4.656470 0.590151
v -2.940109 4.298910 0.916706
v -3.062414 3.901591 1.266661
v -2.899998 3.503410 1.605759
v -2.468761 3.143340 1.900801
v -1.810906 2.856628 2.122912
v -0.990839 2.671340 2.250348
v -0.088831 2.605613 2.270634
v 0.806819 2.665880 2.181787
v 1.608447 2.846243 1.992501
v 2.237576 3.129045 1.721307
v 2.632633 3.486607 1.394748
v 2.754941 3.883926 1.044793
v 2.597438 4.405917 0.796282
v 2.166199 4.765986 0.501238
v 1.508346 5.052698 0.279127
v 0.688279 5.237987 0.151692
v -0.213728 5.303713 0.131405
v -1.109382 5.243446 0.220253
v -1.911012 5.063084 0.409538
v -2.540143 4.780279 0.680734
v -2.935197 4.422719 1.007292
v -3.057507 4.025402 1.357246
v -2.895075 3.627219 1.696344
v -2.463847 3.267150 1.991387
v -1.805992 2.980438 2.213498
v -0.985925 2.795150 2.340933
v -0.083919 2.729421 2.361223
v 0.811733 2.789689 2.272372
v 1.613361 2.970053 2.083086
v 2.242496 3.252857 1.811889
v 2.637548 3.610417 1.485333
v 2.759852 4.007734 1.135379
v -0.153736 3.892758 1.155727
v -0.148825 4.016568 1.246313
vt 0.648603 0.107966
vt 0.626409 0.064408
vt 0.591842 0.029841
vt 0.548284 0.007647
vt 0.500000 -0.000000
vt 0.451716 0.007647
vt 0.408159 0.029841
vt 0.373591 0.064409
vt 0.351397 0.107966
vt 0.343750 0.156250
vt 0.351397 0.204534
vt 0.373591 0.248091
vt 0.408159 0.282659
vt 0.451716 0.304853
vt 0.500000 0.312500
vt 0.548284 0.304853
vt 0.591841 0.282659
vt 0.626409 0.248091
vt 0.648603 0.204534
vt 0.656250 0.156250
vt 0.375000 0.312500
vt 0.387500 0.312500
vt 0.400000 0.312500
vt 0.412500 0.312500
vt 0.425000 0.312500
vt 0.437500 0.312500
vt 0.450000 0.312500
vt 0.462500 0.312500
vt 0.475000 0.312500
vt 0.487500 0.312500
vt 0.500000 0.312500
vt 0.512500 0.312500
vt 0.525000 0.312500
vt 0.537500 0.312500
vt 0.550000 0.312500
vt 0.562500 0.312500
vt 0.575000 0.312500
vt 0.587500 0.312500
vt 0.600000 0.312500
vt 0.612500 0.312500
vt 0.625000 0.312500
vt 0.375000 0.688440
vt 0.387500 0.688440
vt 0.400000 0.688440
vt 0.412500 0.688440
vt 0.425000 0.688440
vt 0.437500 0.688440
vt 0.450000 0.688440
vt 0.462500 0.688440
vt 0.475000 0.688440
vt 0.487500 0.688440
vt 0.500000 0.688440
vt 0.512500 0.688440
vt 0.525000 0.688440
vt 0.537500 0.688440
vt 0.550000 0.688440
vt 0.562500 0.688440
vt 0.575000 0.688440
vt 0.587500 0.688440
vt 0.600000 0.688440
vt 0.612500 0.688440
vt 0.625000 0.688440
vt 0.648603 0.795466
vt 0.626409 0.751908
vt 0.591842 0.717341
vt 0.548284 0.695147
vt 0.500000 0.687500
vt 0.451716 0.695147
vt 0.408159 0.717341
vt 0.373591 0.751909
vt 0.351397 0.795466
vt 0.343750 0.843750
vt 0.351397 0.892034
vt 0.373591 0.935591
vt 0.408159 0.970159
vt 0.451716 0.992353
vt 0.500000 1.000000
vt 0.548284 0.992353
vt 0.591841 0.970159
vt 0.626409 0.935591
vt 0.648603 0.892034
vt 0.656250 0.843750
vt 0.500000 0.150000
vt 0.500000 0.837500
vn 0.861122 0.277480 -0.425998
vn 0.599897 0.456780 -0.656867
vn 0.577994 0.466787 -0.669353
vn 0.832191 0.305508 -0.462735
vn 0.359120 0.541766 -0.759949
vn 0.347895 0.544564 -0.763164
vn 0.155224 0.579309 -0.800192
vn 0.151000 0.579805 -0.800640
vn -0.029351 0.590995 -0.806141
vn -0.028540 0.590988 -0.806175
vn -0.214138 0.582304 -0.784262
vn -0.208205 0.582909 -0.785409
vn -0.418269 0.547090 -0.725082
vn -0.405134 0.550259 -0.730124
vn -0.656648 0.462134 -0.596025
vn -0.633165 0.473245 -0.612487
vn -0.901709 0.278016 -0.331100
vn -0.874812 0.308190 -0.373794
vn -0.995918 -0.024125 0.086981
vn -0.999453 0.020915 0.025605
vn -0.832189 -0.305512 0.462735
vn -0.861122 -0.277485 0.425995
vn -0.577994 -0.466782 0.669356
vn -0.599895 -0.456777 0.656872
vn -0.347894 -0.544561 0.763166
vn -0.359120 -0.541763 0.759951
vn -0.151000 -0.579803 0.800642
vn -0.155223 -0.579307 0.800194
vn 0.028541 -0.590985 0.806177
vn 0.029351 -0.590992 0.806143
vn 0.208205 -0.582912 0.785407
vn 0.214138 -0.582307 0.784260
vn 0.405135 -0.550268 0.730117
vn 0.418270 -0.547099 0.725074
vn 0.633164 -0.473255 0.612481
vn 0.656651 -0.462142 0.596016
vn 0.874812 -0.308204 0.373784
vn 0.901711 -0.278029 0.331085
vn 0.999452 -0.020929 -0.025624
vn 0.995917 0.024108 -0.086995
vn -0.030776 -0.655299 -0.754742
vn -0.030775 -0.655300 -0.754741
vn -0.030775 -0.655299 -0.754742
vn -0.030776 -0.655299 -0.754742
vn -0.030775 -0.655299 -0.754742
vn -0.030776 -0.655299 -0.754742
vn -0.030775 -0.655299 -0.754743
vn -0.030776 -0.655299 -0.754742
vn -0.030775 -0.655298 -0.754743
vn -0.030775 -0.655298 -0.754743
vn -0.030775 -0.655300 -0.754742
vn -0.030775 -0.655300 -0.754741
vn -0.030776 -0.655298 -0.754743
vn -0.030775 -0.655299 -0.754742
vn -0.030775 -0.655299 -0.754743
vn -0.030775 -0.655299 -0.754742
vn -0.030776 -0.655299 -0.754742
vn -0.030775 -0.655299 -0.754743
vn -0.030775 -0.655299 -0.754743
vn -0.030775 -0.655299 -0.754743
vn -0.030775 -0.655300 -0.754742
vn 0.030775 0.655300 0.754742
vn 0.030775 0.655299 0.754742
vn 0.030775 0.655299 0.754742
vn 0.030775 0.655299 0.754742
vn 0.030776 0.655299 0.754743
vn 0.030775 0.655299 0.754742
vn 0.030776 0.655299 0.754742
vn 0.030775 0.655299 0.754743
vn 0.030775 0.655299 0.754742
vn 0.030775 0.655299 0.754743
vn 0.030775 0.655300 0.754742
vn 0.030775 0.655300 0.754741
vn 0.030776 0.655299 0.754742
vn 0.030776 0.655299 0.754742
vn 0.030775 0.655299 0.754742
vn 0.030776 0.655300 0.754742
vn 0.030776 0.655299 0.754742
vn 0.030776 0.655300 0.754742
vn 0.030775 0.655298 0.754743
vn 0.030775 0.655298 0.754743
vn 0.030775 0.655299 0.754742
s 1
g pCylinder1
usemtl initialShadingGroup
f 1/21/1 2/22/2 22/43/3 21/42/4
f 2/22/2 3/23/5 23/44/6 22/43/3
f 3/23/5 4/24/7 24/45/8 23/44/6
f 4/24/7 5/25/9 25/46/10 24/45/8
f 5/25/9 6/26/11 26/47/12 25/46/10
f 6/26/11 7/27/13 27/48/14 26/47/12
f 7/27/13 8/28/15 28/49/16 27/48/14
f 8/28/15 9/29/17 29/50/18 28/49/16
f 9/29/17 10/30/19 30/51/20 29/50/18
f 10/30/19 11/31/21 31/52/22 30/51/20
f 11/31/21 12/32/23 32/53/24 31/52/22
f 12/32/23 13/33/25 33/54/26 32/53/24
f 13/33/25 14/34/27 34/55/28 33/54/26
f 14/34/27 15/35/29 35/56/30 34/55/28
f 15/35/29 16/36/31 36/57/32 35/56/30
f 16/36/31 17/37/33 37/58/34 36/57/32
f 17/37/33 18/38/35 38/59/36 37/58/34
f 18/38/35 19/39/37 39/60/38 38/59/36
f 19/39/37 20/40/39 40/61/40 39/60/38
f 20/40/39 1/41/1 21/62/4 40/61/40
s 2
f 2/2/41 1/1/42 41/83/43
f 3/3/44 2/2/41 41/83/43
f 4/4/45 3/3/44 41/83/43
f 5/5/46 4/4/45 41/83/43
f 6/6/47 5/5/46 41/83/43
f 7/7/48 6/6/47 41/83/43
f 8/8/49 7/7/48 41/83/43
f 9/9/50 8/8/49 41/83/43
f 10/10/51 9/9/50 41/83/43
f 11/11/52 10/10/51 41/83/43
f 12/12/53 11/11/52 41/83/43
f 13/13/54 12/12/53 41/83/43
f 14/14/55 13/13/54 41/83/43
f 15/15/56 14/14/55 41/83/43
f 16/16/57 15/15/56 41/83/43
f 17/17/58 16/16/57 41/83/43
f 18/18/59 17/17/58 41/83/43
f 19/19/60 18/18/59 41/83/43
f 20/20/61 19/19/60 41/83/43
f 1/1/42 20/20/61 41/83/43
s 3
f 21/81/62 22/80/63 42/84/64
f 22/80/63 23/79/65 42/84/64
f 23/79/65 24/78/66 42/84/64
f 24/78/66 25/77/67 42/84/64
f 25/77/67 26/76/68 42/84/64
f 26/76/68 27/75/69 42/84/64
f 27/75/69 28/74/70 42/84/64
f 28/74/70 29/73/71 42/84/64
f 29/73/71 30/72/72 42/84/64
f 30/72/72 31/71/73 42/84/64
f 31/71/73 32/70/74 42/84/64
f 32/70/74 33/69/75 42/84/64
f 33/69/75 34/68/76 42/84/64
f 34/68/76 35/67/77 42/84/64
f 35/67/77 36/66/78 42/84/64
f 36/66/78 37/65/79 42/84/64
f 37/65/79 38/64/80 42/84/64
f 38/64/80 39/63/81 42/84/64
f 39/63/81 40/82/82 42/84/64
f 40/82/82 21/81/62 42/84/64
