# This file uses centimeters as units for non-parametric coordinates.

mtllib room.mtl
g default
v -14.300128 21.706552 14.315649
v -13.870484 -2.270842 14.315649
v 14.327962 22.066388 14.315649
v 14.757589 -1.911003 14.315649
v 14.327962 22.066388 -14.315649
v 14.757589 -1.911003 -14.315649
v -14.300128 21.706552 -14.315649
v -13.870484 -2.270842 -14.315649
v -13.077885 19.784448 13.127987
v -12.683893 -2.203715 13.127987
v 13.175138 20.114439 13.127987
v 13.569128 -1.873729 13.127987
v 13.175138 20.114439 -13.127987
v 13.569128 -1.873729 -13.127987
v -13.077885 19.784448 -13.127987
v -12.683893 -2.203715 -13.127987
vt 0.375000 0.000000
vt 0.625000 0.000000
vt 0.375000 0.250000
vt 0.625000 0.250000
vt 0.375000 0.500000
vt 0.625000 0.500000
vt 0.375000 0.750000
vt 0.625000 0.750000
vt 0.375000 1.000000
vt 0.625000 1.000000
vt 0.125000 0.000000
vt 0.125000 0.250000
vt 0.375000 0.000000
vt 0.375000 0.250000
vt 0.625000 0.250000
vt 0.625000 0.000000
vt 0.375000 0.500000
vt 0.625000 0.500000
vt 0.375000 0.750000
vt 0.625000 0.750000
vt 0.375000 1.000000
vt 0.625000 1.000000
vt 0.125000 0.000000
vt 0.125000 0.250000
vn 0.000000 0.000000 1.000000
vn 0.000000 0.000000 1.000000
vn 0.000000 0.000000 1.000000
vn 0.000000 0.000000 1.000000
vn 0.999839 0.017915 0.000000
vn 0.999839 0.017915 0.000000
vn 0.999839 0.017915 0.000000
vn 0.999839 0.017915 0.000000
vn 0.000000 0.000000 -1.000000
vn 0.000000 0.000000 -1.000000
vn 0.000000 0.000000 -1.000000
vn 0.000000 0.000000 -1.000000
vn -0.999840 -0.017916 0.000000
vn -0.999840 -0.017916 0.000000
vn -0.999840 -0.017916 0.000000
vn -0.999840 -0.017916 0.000000
vn -0.012568 0.999921 0.000000
vn -0.012568 0.999921 0.000000
vn -0.012568 0.999921 0.000000
vn -0.012568 0.999921 0.000000
vn 0.000000 -0.000000 -1.000000
vn 0.000000 -0.000000 -1.000000
vn 0.000000 -0.000000 -1.000000
vn 0.000000 -0.000000 -1.000000
vn -0.999840 -0.017915 0.000000
vn -0.999840 -0.017915 0.000000
vn -0.999840 -0.017915 0.000000
vn -0.999840 -0.017915 0.000000
vn 0.000000 -0.000000 1.000000
vn 0.000000 -0.000000 1.000000
vn 0.000000 -0.000000 1.000000
vn 0.000000 -0.000000 1.000000
vn 0.999839 0.017915 0.000000
vn 0.999839 0.017915 0.000000
vn 0.999839 0.017915 0.000000
vn 0.999839 0.017915 0.000000
vn 0.012569 -0.999921 0.000000
vn 0.012569 -0.999921 0.000000
vn 0.012569 -0.999921 0.000000
vn 0.012569 -0.999921 0.000000
vn 0.012557 -0.998956 -0.043916
vn 0.012556 -0.998956 -0.043916
vn 0.012557 -0.998956 -0.043916
vn 0.012557 -0.998956 -0.043916
vn 0.056481 -0.998404 0.000000
vn 0.056481 -0.998404 0.000000
vn 0.056481 -0.998404 0.000000
vn 0.056481 -0.998404 0.000000
vn 0.012557 -0.998956 0.043916
vn 0.012557 -0.998956 0.043916
vn 0.012557 -0.998956 0.043916
vn 0.012557 -0.998956 0.043916
vn -0.031348 -0.999509 0.000000
vn -0.031348 -0.999509 0.000000
vn -0.031348 -0.999509 0.000000
vn -0.031348 -0.999509 0.000000
s off
g pasted__pCube3 group
usemtl initialShadingGroup
f 1/1/1 2/2/2 4/4/3 3/3/4
f 3/3/5 4/4/6 6/6/7 5/5/8
f 5/5/9 6/6/10 8/8/11 7/7/12
f 7/7/13 8/8/14 2/10/15 1/9/16
f 7/11/17 1/1/18 3/3/19 5/12/20
f 9/13/21 11/14/22 12/15/23 10/16/24
f 11/14/25 13/17/26 14/18/27 12/15/28
f 13/17/29 15/19/30 16/20/31 14/18/32
f 15/19/33 9/21/34 10/22/35 16/20/36
f 15/23/37 13/24/38 11/14/39 9/13/40
f 4/4/41 2/2/42 10/16/43 12/15/44
f 2/10/45 8/8/46 16/20/47 10/22/48
f 8/8/49 6/6/50 14/18/51 16/20/52
f 6/6/53 4/4/54 12/15/55 14/18/56
