# This file uses centimeters as units for non-parametric coordinates.

mtllib box1.mtl
g default
v 12.325526 1.139490 0.215883
v 7.732671 2.563646 -4.898393
v 13.241481 9.628198 0.965282
v 8.648621 11.052351 -4.148992
v 6.498976 9.880672 6.261475
v 1.906116 11.304825 1.147202
v 5.583022 1.391964 5.512076
v 0.990166 2.816120 0.397800
v 11.712799 1.617136 0.053500
v 7.500976 2.923140 -4.636479
v 12.552761 9.401598 0.740730
v 8.340938 10.707602 -3.949250
v 6.369631 9.633127 5.597538
v 2.157808 10.939130 0.907557
v 5.529669 1.848665 4.910308
v 1.317847 3.154669 0.220328
vt 0.375000 0.000000
vt 0.625000 0.000000
vt 0.375000 0.250000
vt 0.625000 0.250000
vt 0.375000 0.500000
vt 0.625000 0.500000
vt 0.375000 0.750000
vt 0.625000 0.750000
vt 0.375000 1.000000
vt 0.625000 1.000000
vt 0.125000 0.000000
vt 0.125000 0.250000
vt 0.375000 0.000000
vt 0.375000 0.250000
vt 0.625000 0.250000
vt 0.625000 0.000000
vt 0.375000 0.500000
vt 0.625000 0.500000
vt 0.375000 0.750000
vt 0.625000 0.750000
vt 0.375000 1.000000
vt 0.625000 1.000000
vt 0.125000 0.000000
vt 0.125000 0.250000
vn 0.740985 -0.020699 -0.671203
vn 0.740985 -0.020699 -0.671203
vn 0.740985 -0.020699 -0.671203
vn 0.740985 -0.020699 -0.671203
vn 0.147074 0.979087 0.140564
vn 0.147074 0.979087 0.140564
vn 0.147074 0.979087 0.140564
vn 0.147074 0.979087 0.140564
vn -0.740985 0.020699 0.671203
vn -0.740985 0.020699 0.671203
vn -0.740985 0.020699 0.671203
vn -0.740985 0.020699 0.671203
vn -0.147074 -0.979087 -0.140564
vn -0.147074 -0.979087 -0.140564
vn -0.147074 -0.979087 -0.140564
vn -0.147074 -0.979087 -0.140564
vn 0.608959 -0.134716 0.781678
vn 0.608959 -0.134716 0.781678
vn 0.608959 -0.134716 0.781678
vn 0.608959 -0.134716 0.781678
vn -0.740985 0.020699 0.671203
vn -0.740984 0.020699 0.671203
vn -0.740985 0.020699 0.671203
vn -0.740985 0.020699 0.671203
vn -0.147074 -0.979087 -0.140564
vn -0.147074 -0.979087 -0.140564
vn -0.147074 -0.979087 -0.140564
vn -0.147074 -0.979087 -0.140564
vn 0.740984 -0.020699 -0.671203
vn 0.740985 -0.020699 -0.671203
vn 0.740985 -0.020699 -0.671203
vn 0.740985 -0.020699 -0.671203
vn 0.147074 0.979087 0.140564
vn 0.147074 0.979087 0.140564
vn 0.147074 0.979087 0.140564
vn 0.147074 0.979087 0.140564
vn -0.608959 0.134716 -0.781678
vn -0.608959 0.134717 -0.781678
vn -0.608959 0.134716 -0.781678
vn -0.608959 0.134716 -0.781678
vn -0.642071 0.135889 -0.754506
vn -0.642071 0.135890 -0.754506
vn -0.642071 0.135890 -0.754506
vn -0.642071 0.135890 -0.754506
vn -0.603846 0.177050 -0.777189
vn -0.603846 0.177050 -0.777189
vn -0.603846 0.177050 -0.777189
vn -0.603846 0.177050 -0.777189
vn -0.574939 0.133305 -0.807264
vn -0.574939 0.133305 -0.807264
vn -0.574939 0.133305 -0.807264
vn -0.574939 0.133305 -0.807264
vn -0.612931 0.092379 -0.784717
vn -0.612931 0.092379 -0.784717
vn -0.612931 0.092379 -0.784717
vn -0.612931 0.092379 -0.784717
s off
g pasted__pasted__pasted__pCube3 pasted__pasted__group pasted__group2 group2
usemtl initialShadingGroup
f 1/1/1 2/2/2 4/4/3 3/3/4
f 3/3/5 4/4/6 6/6/7 5/5/8
f 5/5/9 6/6/10 8/8/11 7/7/12
f 7/7/13 8/8/14 2/10/15 1/9/16
f 7/11/17 1/1/18 3/3/19 5/12/20
f 9/13/21 11/14/22 12/15/23 10/16/24
f 11/14/25 13/17/26 14/18/27 12/15/28
f 13/17/29 15/19/30 16/20/31 14/18/32
f 15/19/33 9/21/34 10/22/35 16/20/36
f 15/23/37 13/24/38 11/14/39 9/13/40
f 4/4/41 2/2/42 10/16/43 12/15/44
f 2/10/45 8/8/46 16/20/47 10/22/48
f 8/8/49 6/6/50 14/18/51 16/20/52
f 6/6/53 4/4/54 12/15/55 14/18/56
