# This file uses centimeters as units for non-parametric coordinates.

mtllib tapa.mtl
g default
v 8.054852 2.141265 -7.136144
v 3.001197 6.671278 -2.736891
v 11.690340 8.106250 -9.102149
v 6.636686 12.636263 -4.702896
v 12.099596 8.035712 -8.559381
v 7.045941 12.565724 -4.160127
v 8.464107 2.070727 -6.593376
v 3.410453 6.600740 -2.194123
vt 0.375000 0.000000
vt 0.625000 0.000000
vt 0.375000 0.250000
vt 0.625000 0.250000
vt 0.375000 0.500000
vt 0.625000 0.500000
vt 0.375000 0.750000
vt 0.625000 0.750000
vt 0.375000 1.000000
vt 0.625000 1.000000
vt 0.875000 0.000000
vt 0.875000 0.250000
vt 0.125000 0.000000
vt 0.125000 0.250000
vn -0.598834 0.103213 -0.794194
vn -0.598834 0.103213 -0.794194
vn -0.598834 0.103213 -0.794194
vn -0.598834 0.103213 -0.794194
vn 0.500968 0.821971 -0.270914
vn 0.500968 0.821971 -0.270914
vn 0.500968 0.821971 -0.270914
vn 0.500968 0.821971 -0.270914
vn 0.598834 -0.103213 0.794194
vn 0.598834 -0.103213 0.794194
vn 0.598834 -0.103213 0.794194
vn 0.598834 -0.103213 0.794194
vn -0.500968 -0.821971 0.270914
vn -0.500968 -0.821971 0.270914
vn -0.500968 -0.821971 0.270914
vn -0.500968 -0.821971 0.270914
vn -0.624843 0.560099 0.543931
vn -0.624843 0.560099 0.543931
vn -0.624843 0.560099 0.543931
vn -0.624843 0.560099 0.543931
vn 0.624843 -0.560099 -0.543931
vn 0.624843 -0.560099 -0.543931
vn 0.624843 -0.560099 -0.543931
vn 0.624843 -0.560099 -0.543931
s off
g pasted__pCube1 group4
usemtl initialShadingGroup
f 1/1/1 2/2/2 4/4/3 3/3/4
f 3/3/5 4/4/6 6/6/7 5/5/8
f 5/5/9 6/6/10 8/8/11 7/7/12
f 7/7/13 8/8/14 2/10/15 1/9/16
f 2/2/17 8/11/18 6/12/19 4/4/20
f 7/13/21 1/1/22 3/3/23 5/14/24
