# This file uses centimeters as units for non-parametric coordinates.

mtllib TBox.mtl
g default
v 3.853998 0.716069 -2.820705
v -1.321719 0.685887 8.190510
v -4.047808 0.669419 -3.173521
v 3.821049 6.309056 -2.822293
v -4.080756 6.262406 -3.175109
v -1.354668 6.278875 8.188921
v 4.327366 0.423776 -2.835982
v -1.232833 0.394480 9.343019
v -4.406897 0.372211 -3.225966
v 4.290946 6.605986 -2.837738
v -4.443317 6.554421 -3.227722
v -1.269253 6.576688 9.341264
vt 0.362499 0.012510
vt 0.625000 0.250000
vt 0.625000 0.000000
vt 0.378838 0.745283
vt 0.625256 0.744255
vt 0.621571 0.503438
vt 0.375014 0.999986
vt 0.625000 1.000000
vt 0.864310 0.250281
vt 0.875404 0.000203
vt 0.362499 0.012510
vt 0.625000 0.000000
vt 0.625000 0.250000
vt 0.373575 0.747733
vt 0.626485 0.498303
vt 0.626468 0.748379
vt 0.625000 1.000000
vt 0.375014 0.999986
vt 0.875019 -0.000017
vt 0.884753 0.250019
vn -0.005902 0.999983 -0.000033
vn -0.005902 0.999983 -0.000033
vn -0.005902 0.999983 -0.000033
vn 0.005902 -0.999983 0.000033
vn 0.005902 -0.999983 0.000033
vn 0.005902 -0.999983 0.000033
vn -0.904990 -0.005452 -0.425397
vn -0.904990 -0.005452 -0.425397
vn -0.904990 -0.005452 -0.425397
vn -0.904990 -0.005452 -0.425397
vn 0.972395 0.005662 -0.233273
vn 0.972395 0.005662 -0.233273
vn 0.972395 0.005662 -0.233273
vn 0.972395 0.005662 -0.233273
vn 0.005891 -0.999983 0.000284
vn 0.005891 -0.999983 0.000284
vn 0.005891 -0.999983 0.000284
vn -0.005891 0.999983 -0.000284
vn -0.005891 0.999983 -0.000284
vn -0.005891 0.999983 -0.000284
vn 0.909663 0.005477 0.415311
vn 0.909663 0.005477 0.415311
vn 0.909663 0.005477 0.415311
vn 0.909663 0.005477 0.415311
vn -0.969544 -0.005642 0.244850
vn -0.969544 -0.005642 0.244850
vn -0.969544 -0.005642 0.244850
vn -0.969544 -0.005642 0.244850
vn 0.043550 0.122350 -0.991531
vn 0.043550 0.122350 -0.991531
vn 0.043550 0.122350 -0.991531
vn 0.043550 0.122350 -0.991531
vn -0.032550 -0.000476 -0.999470
vn -0.032550 -0.000476 -0.999470
vn -0.032550 -0.000476 -0.999470
vn -0.032550 -0.000476 -0.999470
vn 0.044991 -0.122766 -0.991415
vn 0.044991 -0.122766 -0.991415
vn 0.044991 -0.122766 -0.991415
vn 0.044991 -0.122766 -0.991415
vn 0.144057 0.000568 -0.989569
vn 0.144057 0.000568 -0.989569
vn 0.144057 0.000568 -0.989569
vn 0.144057 0.000568 -0.989569
s off
g polySurface7 polySurface4
usemtl initialShadingGroup
f 1/1/1 3/2/2 2/3/3
f 4/4/4 6/5/5 5/6/6
f 4/4/7 1/7/8 2/8/9 6/5/10
f 2/3/11 3/2/12 5/9/13 6/10/14
f 7/11/15 8/12/16 9/13/17
f 10/14/18 11/15/19 12/16/20
f 10/14/21 12/16/22 8/17/23 7/18/24
f 8/12/25 12/19/26 11/20/27 9/13/28
f 3/2/29 1/1/30 7/11/31 9/13/32
f 1/7/33 4/4/34 10/14/35 7/18/36
f 4/4/37 5/6/38 11/15/39 10/14/40
f 5/9/41 3/2/42 9/13/43 11/20/44
